#N canvas 1 77 931 662 10;
#X obj 53 584 rotateXYZ;
#X floatatom 98 701 5 0 0 0 - - -, f 5;
#X floatatom 418 123 5 0 0 0 - - -, f 5;
#X floatatom 158 512 5 0 0 0 - - -, f 5;
#X obj 53 720 cube 0.5;
#X obj 72 195 f;
#X obj 72 217 + 1;
#X floatatom 178 153 5 0 0 0 - - -, f 5;
#X obj 72 243 mod 500;
#X obj 72 265 / 500;
#X obj 151 105 r \$1-fallSpeed;
#X obj 53 53 t a b b;
#X obj 99 309 sel 0;
#X obj 72 288 t f f;
#X obj 126 352 s \$1-Fim;
#X obj 438 0 r \$1-Fim;
#N canvas 89 85 504 506 randrota 0;
#X obj 51 56 r \$1-Fim;
#X obj 51 136 random 360;
#X obj 83 161 random 360;
#X obj 386 198 random 360;
#X obj 49 250 outlet;
#X obj 167 369 outlet;
#X obj 109 251 outlet;
#X obj 121 54 r reset;
#X obj 178 175 r \$1-newFrame;
#X obj 172 311 +;
#X obj 178 199 f;
#X obj 178 221 + 1;
#X obj 167 344 mod 359;
#X obj 285 187 r rotaSpeed;
#X obj 172 263 mod 359;
#X obj 50 78 t b b b b;
#X obj 263 236 +;
#X obj 273 121 random 1000;
#X obj 273 143 / 1000;
#X obj 273 165 * 4;
#X obj 285 211 t b f;
#X connect 0 0 15 0;
#X connect 1 0 4 0;
#X connect 2 0 6 0;
#X connect 3 0 9 1;
#X connect 7 0 15 0;
#X connect 8 0 10 0;
#X connect 9 0 12 0;
#X connect 10 0 11 0;
#X connect 11 0 14 0;
#X connect 12 0 5 0;
#X connect 13 0 20 0;
#X connect 14 0 10 1;
#X connect 14 0 9 0;
#X connect 15 0 1 0;
#X connect 15 1 2 0;
#X connect 15 2 3 0;
#X connect 15 3 17 0;
#X connect 16 0 11 1;
#X connect 17 0 18 0;
#X connect 18 0 19 0;
#X connect 19 0 16 0;
#X connect 20 0 16 0;
#X connect 20 1 16 1;
#X restore 65 554 pd randrota;
#X obj 558 8 r \$1-Fim;
#X obj 72 447 s \$1-posY;
#X obj 123 492 r \$1-posY;
#X obj 418 147 s \$1-posX;
#X obj 558 86 s \$1-size;
#X obj 98 679 r \$1-size;
#X obj 88 469 r \$1-posX;
#X obj 407 205 r \$1-posY;
#X obj 372 180 r \$1-posX;
#X obj 372 548 r pontos;
#X obj 357 571 f;
#X obj 189 -128 r \$1-colision;
#X obj 166 -35 tgl 15 0 empty empty empty 17 7 0 10 -262144 -1 -1 0
1;
#X obj 88 -4 demux 0 1 2 3;
#X obj 193 -78 onebang;
#X obj 191 -104 sel 1;
#X obj 253 -66 t b b;
#X msg 231 -32 0;
#X floatatom 810 140 5 0 0 0 - - -, f 5;
#X obj 810 17 r \$1-Fim;
#X obj 832 285 s \$1-fallSpeed;
#X obj 810 94 * 1;
#X obj 809 117 + 450;
#X obj 151 128 t b f;
#X msg 96 171 0;
#X obj 88 -26 alpha;
#X obj 418 77 * 14;
#X obj 418 99 - 7;
#X obj 810 50 random 90;
#X obj 810 72 - 45;
#X obj 500 401 f;
#X obj 500 445 max 0;
#X msg 516 377 1;
#X obj 500 423 - 0.01;
#X obj 500 467 sel 0;
#X obj 730 18 r \$1-reset;
#X obj 363 0 r \$1-reset;
#X obj 257 -95 r \$1-reset;
#X obj 472 -41 s \$1-reset;
#X obj 477 -144 r reset;
#X obj 500 492 s \$1-reset;
#X obj 418 33 random 4000;
#X obj 418 55 / 4000;
#X obj 606 -87 s somaPontos;
#X obj 337 601 text2d 0;
#X text 716 -2 Random speed * game speed;
#X obj 337 410 colourRGB 0 0.7 0 1;
#N canvas 1 77 1069 450 COLISIONS 0;
#X floatatom 679 367 5 0 0 0 - - -, f 5;
#X floatatom 703 345 5 0 0 0 - - -, f 5;
#X floatatom 728 322 5 0 0 0 - - -, f 5;
#X msg 684 220 setRmin 0;
#X obj 507 152 r hand-Size;
#X msg 551 251 setRmax \$1;
#X obj 569 56 r hand-R;
#X obj 569 78 unpack f f;
#X obj 790 206 pack f f;
#X obj 790 92 r \$1-posY;
#X obj 814 169 t b f;
#X obj 656 289 tSphere3D;
#X msg 680 194 setZ -5;
#X msg 790 231 position3D \$1 \$2 -5;
#X obj 814 121 r \$1-posX;
#X floatatom 536 210 5 0 0 0 - - -, f 5;
#X obj 863 182 bng 15 250 50 0 empty empty empty 17 7 0 10 -262144
-1 -1;
#X obj 859 147 r hand-R-Update;
#X msg 569 114 setY \$1;
#X msg 634 116 setX \$1;
#X obj 656 405 s \$1-colision;
#X obj 678 154 r \$1-reset;
#X obj 507 189 * 1.5;
#X floatatom 163 324 5 0 0 0 - - -, f 5;
#X floatatom 187 302 5 0 0 0 - - -, f 5;
#X floatatom 212 279 5 0 0 0 - - -, f 5;
#X msg 191 177 setRmin 0;
#X obj 14 109 r hand-Size;
#X msg 58 208 setRmax \$1;
#X obj 76 35 unpack f f;
#X obj 297 163 pack f f;
#X obj 297 49 r \$1-posY;
#X obj 321 126 t b f;
#X obj 163 246 tSphere3D;
#X msg 187 151 setZ -5;
#X msg 297 188 position3D \$1 \$2 -5;
#X obj 321 78 r \$1-posX;
#X floatatom 43 167 5 0 0 0 - - -, f 5;
#X obj 370 139 bng 15 250 50 0 empty empty empty 17 7 0 10 -262144
-1 -1;
#X msg 76 71 setY \$1;
#X msg 141 73 setX \$1;
#X obj 110 387 s \$1-colision;
#X obj 76 13 r hand-L;
#X obj 230 112 r \$1-reset;
#X obj 14 146 * 1.5;
#X obj 366 104 r hand-L-Update;
#X connect 3 0 11 0;
#X connect 4 0 22 0;
#X connect 5 0 11 0;
#X connect 6 0 7 0;
#X connect 7 0 18 0;
#X connect 7 1 19 0;
#X connect 8 0 13 0;
#X connect 9 0 8 0;
#X connect 10 0 8 0;
#X connect 10 1 8 1;
#X connect 11 0 0 0;
#X connect 11 0 20 0;
#X connect 11 1 1 0;
#X connect 11 2 2 0;
#X connect 12 0 11 0;
#X connect 13 0 11 0;
#X connect 14 0 10 0;
#X connect 15 0 5 0;
#X connect 16 0 8 0;
#X connect 17 0 16 0;
#X connect 18 0 11 0;
#X connect 19 0 11 0;
#X connect 21 0 12 0;
#X connect 21 0 3 0;
#X connect 22 0 15 0;
#X connect 26 0 33 0;
#X connect 27 0 44 0;
#X connect 28 0 33 0;
#X connect 29 0 39 0;
#X connect 29 1 40 0;
#X connect 30 0 35 0;
#X connect 31 0 30 0;
#X connect 32 0 30 0;
#X connect 32 1 30 1;
#X connect 33 0 23 0;
#X connect 33 0 41 0;
#X connect 33 1 24 0;
#X connect 33 2 25 0;
#X connect 34 0 33 0;
#X connect 35 0 33 0;
#X connect 36 0 32 0;
#X connect 37 0 28 0;
#X connect 38 0 30 0;
#X connect 39 0 33 0;
#X connect 40 0 33 0;
#X connect 42 0 29 0;
#X connect 43 0 34 0;
#X connect 43 0 26 0;
#X connect 44 0 37 0;
#X connect 45 0 38 0;
#X restore 378 -112 pd COLISIONS;
#X obj 53 533 translateXYZ 0 0 0;
#X obj 479 249 f;
#X msg 494 226 1;
#X obj 407 271 +;
#X obj 337 302 translateXYZ 0 0 0;
#X obj 357 522 oneCollision \$1;
#X obj 516 349 oneCollision \$1;
#X obj 606 -112 oneCollision \$1;
#X obj 428 240 t b f;
#X obj 298 217 t a b b;
#X obj 494 175 oneCollision \$1;
#X obj 479 271 + 0.02;
#X obj 545 244 delay 500;
#X obj 88 -56 gemhead;
#X obj 502 541 loadbang;
#X msg 399 572 font Segment7Standard.otf;
#X floatatom 164 637 5 0 0 0 - - -, f 5;
#X obj 164 614 r cubeTrans;
#X obj 92 78 s \$1-newFrame;
#X text 136 447 Falling cube;
#X obj 99 330 t b b;
#X text 137 308 Passou o fundo;
#X obj 99 377 s perdePonto;
#X obj 72 402 * -11;
#X obj 72 424 + 5.5;
#X obj 36 -54 tgl 15 0 empty empty empty 17 7 0 10 -262144 -1 -1 0
1;
#X obj 108 -119 r reset;
#X obj 36 -110 r gameOver;
#X msg 36 -87 0;
#X msg 107 -96 1;
#X obj 832 258 -;
#X obj 851 147 r pontos;
#X obj 852 222 * 5;
#X obj 113 20 s \$1-Texto;
#X obj 293 190 r \$1-Texto;
#N canvas 1 77 452 415 EscolheCor 0;
#X obj 147 27 r \$1-reset;
#X obj 112 309 outlet;
#X obj 185 309 outlet;
#X obj 147 49 t b b;
#X obj 122 111 random 100;
#X obj 122 133 / 100;
#X obj 195 113 random 100;
#X obj 195 135 / 100;
#X obj 243 209 +;
#X obj 195 162 t f f;
#X obj 122 162 t f f;
#X obj 111 212 spigot;
#X obj 174 221 spigot;
#X obj 243 315 sel 0;
#X obj 243 264 t f f f;
#X obj 243 233 > 1;
#X connect 0 0 3 0;
#X connect 3 0 4 0;
#X connect 3 1 6 0;
#X connect 4 0 5 0;
#X connect 5 0 10 0;
#X connect 6 0 7 0;
#X connect 7 0 9 0;
#X connect 8 0 15 0;
#X connect 9 0 12 0;
#X connect 9 1 8 1;
#X connect 10 0 11 0;
#X connect 10 1 8 0;
#X connect 11 0 1 0;
#X connect 12 0 2 0;
#X connect 13 0 3 0;
#X connect 14 0 13 0;
#X connect 14 1 11 1;
#X connect 14 2 12 1;
#X connect 15 0 14 0;
#X restore 66 613 pd EscolheCor;
#X obj 53 657 colourRGB 1 0 0 0.6;
#X msg 260 674 depth 9;
#X obj 352 648 loadbang;
#X obj 352 670 t b b;
#X obj 431 652 r reset;
#X msg 247 717 font INVADERS.ttf;
#X obj 613 555 r \$1-reset;
#X floatatom 367 793 5 0 0 0 - - -, f 5;
#X obj 197 801 textextruded 1;
#X obj 558 41 random 4;
#X obj 558 64 + 5;
#X obj 351 766 r \$1-size;
#X obj 615 9 r \$1-reset;
#X obj 634 586 decide, f 11;
#X obj 665 645 + 1;
#X obj 477 -118 t b b;
#X obj 472 -65 delay 100;
#X obj 497 -91 random 1000;
#X connect 0 0 101 0;
#X connect 1 0 4 1;
#X connect 2 0 20 0;
#X connect 3 0 65 3;
#X connect 5 0 6 0;
#X connect 6 0 5 1;
#X connect 6 0 8 0;
#X connect 7 0 8 1;
#X connect 7 0 9 1;
#X connect 8 0 9 0;
#X connect 9 0 13 0;
#X connect 10 0 40 0;
#X connect 11 0 65 0;
#X connect 11 1 5 0;
#X connect 11 2 83 0;
#X connect 12 0 85 0;
#X connect 13 0 88 0;
#X connect 13 1 12 0;
#X connect 15 0 58 0;
#X connect 16 2 0 2;
#X connect 17 0 110 0;
#X connect 19 0 65 2;
#X connect 22 0 1 0;
#X connect 23 0 65 1;
#X connect 24 0 68 0;
#X connect 25 0 69 1;
#X connect 26 0 27 1;
#X connect 27 0 61 0;
#X connect 28 0 32 0;
#X connect 29 0 30 1;
#X connect 30 0 11 0;
#X connect 30 1 98 0;
#X connect 31 0 29 0;
#X connect 32 0 31 0;
#X connect 33 0 31 1;
#X connect 33 1 34 0;
#X connect 34 0 29 0;
#X connect 35 0 95 0;
#X connect 36 0 45 0;
#X connect 38 0 39 0;
#X connect 39 0 35 0;
#X connect 40 0 41 0;
#X connect 40 1 7 0;
#X connect 41 0 5 1;
#X connect 42 0 30 0;
#X connect 43 0 44 0;
#X connect 44 0 2 0;
#X connect 45 0 46 0;
#X connect 46 0 38 0;
#X connect 47 0 50 0;
#X connect 48 0 51 0;
#X connect 49 0 47 1;
#X connect 50 0 47 1;
#X connect 50 0 48 0;
#X connect 51 0 57 0;
#X connect 51 1 63 4;
#X connect 52 0 45 0;
#X connect 53 0 58 0;
#X connect 54 0 33 0;
#X connect 56 0 116 0;
#X connect 58 0 59 0;
#X connect 59 0 43 0;
#X connect 63 0 61 0;
#X connect 65 0 0 0;
#X connect 66 0 76 0;
#X connect 67 0 66 1;
#X connect 68 0 69 2;
#X connect 69 0 63 0;
#X connect 70 0 27 0;
#X connect 71 0 49 0;
#X connect 72 0 60 0;
#X connect 73 0 68 0;
#X connect 73 1 68 1;
#X connect 74 0 69 0;
#X connect 74 1 47 0;
#X connect 74 2 66 0;
#X connect 75 0 67 0;
#X connect 76 0 66 1;
#X connect 76 0 73 0;
#X connect 78 0 42 0;
#X connect 79 0 80 0;
#X connect 80 0 61 0;
#X connect 81 0 101 4;
#X connect 82 0 81 0;
#X connect 85 0 87 0;
#X connect 85 1 14 0;
#X connect 88 0 89 0;
#X connect 89 0 18 0;
#X connect 90 0 78 0;
#X connect 91 0 94 0;
#X connect 92 0 93 0;
#X connect 93 0 90 0;
#X connect 94 0 90 0;
#X connect 95 0 37 0;
#X connect 96 0 97 0;
#X connect 97 0 95 1;
#X connect 99 0 74 0;
#X connect 100 0 101 1;
#X connect 100 1 101 2;
#X connect 101 0 109 0;
#X connect 102 0 109 0;
#X connect 103 0 104 0;
#X connect 104 0 102 0;
#X connect 104 1 106 0;
#X connect 105 0 104 0;
#X connect 106 0 109 0;
#X connect 107 0 114 0;
#X connect 110 0 111 0;
#X connect 111 0 21 0;
#X connect 112 0 109 1;
#X connect 112 0 108 0;
#X connect 113 0 110 0;
#X connect 114 0 115 0;
#X connect 115 0 109 0;
#X connect 116 0 117 0;
#X connect 116 1 118 0;
#X connect 117 0 55 0;
#X connect 118 0 117 1;
