#N canvas 4 303 399 297 10;
#X obj 103 21 inlet;
#X obj 90 253 outlet;
#X obj 103 121 autoscaler 7 -7;
#X obj 295 87 r resetScalar;
#X obj 106 54 max 0;
#X connect 0 0 4 0;
#X connect 2 0 1 0;
#X connect 3 0 2 1;
#X connect 4 0 2 0;
