#N canvas 1 299 399 297 10;
#X obj 90 253 outlet;
#X obj 295 87 r resetScalar;
#X obj 103 21 inlet;
#X obj 106 54 max 0;
#X obj 103 121 autoscaler -5 5;
#X connect 1 0 4 1;
#X connect 2 0 3 0;
#X connect 3 0 4 0;
#X connect 4 0 0 0;
