#N canvas 14 98 1132 622 10;
#X declare -path game;
#X obj 77 169 gemwin;
#X obj 317 197 world_light;
#X obj 296 137 gemhead;
#X msg 116 118 lighting 1 \, create \, 1;
#X msg 119 140 destroy;
#X obj 317 169 rotateXYZ;
#X floatatom 356 129 5 0 0 0 - - -, f 5;
#N canvas 0 77 1366 666 CAMERA 0;
#X text 43 11 messages to [gemwin] regarding the view-point ("camera")
;
#X text 312 389 perspec <left> <right> <bottom> <top> <front> <back>::
;
#X text 311 407 set the clipping planes of the view-point. this might
be what you need \, if all the objects that re further away than 20
units suddenly disappear;
#X text 311 449 default: -1 1 -1 1 1 20;
#X text 208 51 view <x> <y> <z>::;
#X text 208 70 translate the camera / set the viewpoint:: the viewing-direction
will not be changed.;
#X text 80 119 default: 0 0 4;
#X text 208 98 the viewing direction defaults to "0 0 1" \, with y-axis
as "up";
#X text 303 167 view <x> <y> <z> <azimuth>::;
#X text 303 184 view <x> <y> <z> <azimuth> <elevation>::;
#X text 303 201 translate/rotate camera/viewpoint \; the "up" direction
will still be the y-axis;
#X text 389 284 view <view_x> <view_y> <view_z> <target_x> <target_y>
<target_z> <up_x> <up_y> <up_z>::;
#X text 389 314 set viewpoint (view_X view_Y view_Z). the camera will
look at the target-point (target_X \, target_Y \, target_Z). "up" is
defined via the vector (up_X \, up_Y \, up_Z);
#X text 301 251 default: 0 0 4 0 0;
#X text 389 355 default: 0 0 4 0 0 0 0 1 0;
#X msg 25 101 view \$1 \$2 \$3;
#X msg 42 190 view \$1 \$2 \$3 \$4;
#X msg 49 250 view \$1 \$2 \$3 \$4 \$5;
#X msg 52 330 view \$1 \$2 \$3 \$4 \$5 \$6 \$7 \$8 \$9;
#X msg 101 452 perspec \$1 \$2 \$3 \$4 \$5 \$6;
#X text 310 467 if you want to remove perspective \, see [ortho];
#X msg 66 563 view 0 0 20 \, perspec -1 1 -1 1 4 50;
#N canvas 1299 508 544 500 perspec 0;
#X obj 90 428 outlet;
#X obj 268 273 t f f;
#X obj 268 298 * -1;
#X obj 90 268 t f f;
#X obj 90 293 * -1;
#X obj 90 367 pack -1 1 -1 1 1 20;
#X msg 90 389 set perspec \$1 \$2 \$3 \$4 \$5 \$6 \, bang;
#X msg 172 453 set perspec \, adddollar 1 \, adddollar 2 \, adddollar
3 \, adddollar 4 \, adddollar 5 \, adddollar 6;
#X floatatom 103 117 5 0.1 5 1 x_wideness - -, f 5;
#X floatatom 103 134 5 0.1 5 1 y_wideness - -, f 5;
#X floatatom 103 151 5 0 0 1 z_depth - -, f 5;
#X obj 360 196 select 1;
#X obj 405 219 t b f f;
#X obj 249 226 t b f f;
#X obj 204 203 select 0;
#X obj 360 218 f 20;
#X obj 204 224 f 1;
#X msg 204 246 set \$1;
#X msg 360 240 set \$1;
#X obj 134 216 t b f f;
#X obj 89 193 select 0;
#X obj 89 214 f 1;
#X msg 89 236 set \$1;
#X obj 328 97 loadbang;
#X obj 328 119 t b b;
#X obj 328 141 t b b b;
#X connect 1 0 2 0;
#X connect 1 1 5 3;
#X connect 2 0 5 2;
#X connect 3 0 4 0;
#X connect 3 1 5 1;
#X connect 4 0 5 0;
#X connect 5 0 6 0;
#X connect 6 0 0 0;
#X connect 7 0 0 0;
#X connect 8 0 20 0;
#X connect 9 0 14 0;
#X connect 10 0 11 0;
#X connect 11 0 15 0;
#X connect 11 1 12 0;
#X connect 12 0 5 0;
#X connect 12 1 5 5;
#X connect 12 2 15 1;
#X connect 13 0 5 0;
#X connect 13 1 1 0;
#X connect 13 2 16 1;
#X connect 14 0 16 0;
#X connect 14 1 13 0;
#X connect 15 0 18 0;
#X connect 16 0 17 0;
#X connect 17 0 9 0;
#X connect 18 0 10 0;
#X connect 19 1 3 0;
#X connect 19 2 21 1;
#X connect 20 0 21 0;
#X connect 20 1 19 0;
#X connect 21 0 22 0;
#X connect 22 0 8 0;
#X connect 23 0 24 0;
#X connect 24 0 25 0;
#X connect 24 1 7 0;
#X connect 25 0 21 0;
#X connect 25 1 16 0;
#X connect 25 2 15 0;
#X coords 0 -1 1 1 100 67 1 100 100;
#X restore 101 380 pd perspec;
#X text 292 554 the default camera has a very wide angle. this message
allows to narrow it.;
#N canvas 506 305 612 484 view 0;
#X floatatom 112 114 5 0 0 0 x - -, f 5;
#X floatatom 158 114 5 0 0 0 y - -, f 5;
#X floatatom 201 114 5 0 0 0 z - -, f 5;
#X floatatom 236 114 5 0 0 2 azimuth - -, f 5;
#X obj 369 109 loadbang;
#X obj 140 335 outlet;
#X obj 201 226 t b f;
#X obj 150 227 t b f;
#X obj 369 131 t b b;
#X msg 213 342 set view \, adddollar 1 \, adddollar 2 \, adddollar
3 \, adddollar 4;
#X obj 140 274 pack 0 0 4 0;
#X obj 251 226 t b f;
#X msg 398 196 set 4;
#X msg 140 296 set view \$1 \$2 \$3 \$4 \, bang;
#X connect 0 0 10 0;
#X connect 1 0 7 0;
#X connect 2 0 6 0;
#X connect 3 0 11 0;
#X connect 4 0 8 0;
#X connect 6 0 10 0;
#X connect 6 1 10 2;
#X connect 7 0 10 0;
#X connect 7 1 10 1;
#X connect 8 0 12 0;
#X connect 8 1 9 0;
#X connect 9 0 5 0;
#X connect 10 0 13 0;
#X connect 11 0 10 0;
#X connect 11 1 10 3;
#X connect 12 0 2 0;
#X connect 13 0 5 0;
#X coords 0 -1 1 1 180 30 1 100 100;
#X restore 42 156 pd view;
#N canvas 508 299 612 484 view 0;
#X floatatom 112 114 5 0 0 0 x - -, f 5;
#X floatatom 158 114 5 0 0 0 y - -, f 5;
#X floatatom 201 114 5 0 0 0 z - -, f 5;
#X floatatom 236 114 5 0 0 2 azimuth - -, f 5;
#X obj 369 109 loadbang;
#X obj 140 335 outlet;
#X obj 201 226 t b f;
#X obj 150 227 t b f;
#X obj 369 131 t b b;
#X obj 251 226 t b f;
#X msg 398 196 set 4;
#X msg 140 296 set view \$1 \$2 \$3 \$4 \$5 \, bang;
#X obj 140 274 pack 0 0 4 0 0;
#X floatatom 286 114 5 0 0 2 elevate - -, f 5;
#X obj 291 226 t b f;
#X msg 213 342 set view \, adddollar 1 \, adddollar 2 \, adddollar
3 \, adddollar 4 \, adddollar 5;
#X connect 0 0 12 0;
#X connect 1 0 7 0;
#X connect 2 0 6 0;
#X connect 3 0 9 0;
#X connect 4 0 8 0;
#X connect 6 0 12 0;
#X connect 6 1 12 2;
#X connect 7 0 12 0;
#X connect 7 1 12 1;
#X connect 8 0 10 0;
#X connect 8 1 15 0;
#X connect 9 0 12 0;
#X connect 9 1 12 3;
#X connect 10 0 2 0;
#X connect 11 0 5 0;
#X connect 12 0 11 0;
#X connect 13 0 14 0;
#X connect 14 0 12 0;
#X connect 14 1 12 4;
#X connect 15 0 5 0;
#X coords 0 -1 1 1 230 30 1 100 100;
#X restore 49 216 pd view;
#N canvas 509 296 612 484 view 0;
#X floatatom 112 114 5 0 0 0 x - -, f 5;
#X floatatom 158 114 5 0 0 0 y - -, f 5;
#X floatatom 201 114 5 0 0 0 z - -, f 5;
#X obj 369 109 loadbang;
#X obj 140 335 outlet;
#X obj 201 226 t b f;
#X obj 150 227 t b f;
#X obj 369 131 t b b;
#X msg 398 196 set 4;
#X obj 140 274 pack 0 0 4;
#X msg 140 296 set view \$1 \$2 \$3 \, bang;
#X msg 213 342 set view \, adddollar 1 \, adddollar 2 \, adddollar
3;
#X connect 0 0 9 0;
#X connect 1 0 6 0;
#X connect 2 0 5 0;
#X connect 3 0 7 0;
#X connect 5 0 9 0;
#X connect 5 1 9 2;
#X connect 6 0 9 0;
#X connect 6 1 9 1;
#X connect 7 0 8 0;
#X connect 7 1 11 0;
#X connect 8 0 2 0;
#X connect 9 0 10 0;
#X connect 10 0 4 0;
#X connect 11 0 4 0;
#X coords 0 -1 1 1 140 30 1 100 100;
#X restore 25 65 pd view;
#N canvas 380 50 612 484 view 0;
#X floatatom 214 114 5 0 0 2 X - -, f 5;
#X obj 166 22 loadbang;
#X obj 139 335 outlet;
#X obj 174 177 t b f;
#X obj 139 177 t b f;
#X obj 214 177 t b f;
#X msg 174 79 set 4;
#X floatatom 249 114 5 0 0 2 Y - -, f 5;
#X obj 249 177 t b f;
#X obj 139 274 pack 0 0 4 0 0 0 0 1 0;
#X floatatom 284 114 5 0 0 2 Z - -, f 5;
#X floatatom 104 114 5 0 0 2 x - -, f 5;
#X floatatom 139 114 5 0 0 2 y - -, f 5;
#X floatatom 174 114 5 0 0 2 z - -, f 5;
#X floatatom 324 114 5 0 0 2 upX - -, f 5;
#X floatatom 359 114 5 0 0 2 upY - -, f 5;
#X floatatom 394 114 5 0 0 2 upZ - -, f 5;
#X obj 284 177 t b f;
#X obj 324 177 t b f;
#X obj 359 177 t b f;
#X obj 394 177 t b f;
#X obj 324 199 t b;
#X obj 214 199 t b;
#X msg 139 296 set view \$1 \$2 \$3 \$4 \$5 \$6 \$7 \$8 \$9 \, bang
;
#X msg 251 22 set view \, adddollar 1 \, adddollar 2 \, adddollar 3
\, adddollar 4 \, adddollar 5 \, adddollar 6 \, adddollar 7 \, adddollar
8 \, adddollar 9;
#X obj 166 44 t b b b;
#X msg 359 79 set 1;
#X connect 0 0 5 0;
#X connect 1 0 25 0;
#X connect 3 0 9 0;
#X connect 3 1 9 2;
#X connect 4 0 9 0;
#X connect 4 1 9 1;
#X connect 5 0 22 0;
#X connect 5 1 9 3;
#X connect 6 0 13 0;
#X connect 7 0 8 0;
#X connect 8 0 22 0;
#X connect 8 1 9 4;
#X connect 9 0 23 0;
#X connect 10 0 17 0;
#X connect 11 0 9 0;
#X connect 12 0 4 0;
#X connect 13 0 3 0;
#X connect 14 0 18 0;
#X connect 15 0 19 0;
#X connect 16 0 20 0;
#X connect 17 0 22 0;
#X connect 17 1 9 5;
#X connect 18 0 21 0;
#X connect 18 1 9 6;
#X connect 19 0 21 0;
#X connect 19 1 9 7;
#X connect 20 0 21 0;
#X connect 20 1 9 8;
#X connect 21 0 22 0;
#X connect 22 0 9 0;
#X connect 23 0 2 0;
#X connect 24 0 2 0;
#X connect 25 0 6 0;
#X connect 25 1 26 0;
#X connect 25 2 24 0;
#X connect 26 0 15 0;
#X coords 0 -1 1 1 330 30 2 100 100;
#X restore 52 296 pd view;
#X text 309 229 azimuth and elevation are in degree [°];
#X obj 25 588 outlet;
#X connect 15 0 29 0;
#X connect 16 0 29 0;
#X connect 17 0 29 0;
#X connect 18 0 29 0;
#X connect 19 0 29 0;
#X connect 21 0 29 0;
#X connect 22 0 19 0;
#X connect 24 0 16 0;
#X connect 25 0 17 0;
#X connect 26 0 15 0;
#X connect 27 0 18 0;
#X restore 14 139 pd CAMERA;
#X obj 535 185 gemhead;
#X obj 529 428 circle;
#X obj 535 237 separator;
#X obj 535 209 t a a;
#X obj 88 493 pack f f;
#X obj 111 547 s hand-R;
#X floatatom 88 413 5 0 0 0 - - -, f 5;
#X floatatom 133 411 5 0 0 0 - - -, f 5;
#X obj 558 275 r hand-R;
#X obj 558 297 unpack f f;
#X obj 133 430 t b f;
#X obj 67 318 s hand-Size;
#X floatatom 75 265 5 0 0 0 - - -, f 5;
#X obj 562 406 r hand-Size;
#N canvas 1 77 818 287 OSC 1;
#X obj 17 9 udpreceive 5005;
#X obj 17 30 unpackOSC;
#X obj 17 261 s leftY;
#X obj 73 216 s leftX;
#X obj 17 63 routeOSC /leftY /leftX /rightY /rightX;
#X obj 129 171 s rightY;
#X obj 185 127 s rightX;
#X obj 17 240 handConverter;
#X obj 73 193 handConverter;
#X obj 129 149 handConverter;
#X obj 185 106 handConverter;
#X obj 242 85 print UNKNOWN-OSC-INPUT;
#X connect 0 0 1 0;
#X connect 1 0 4 0;
#X connect 4 0 7 0;
#X connect 4 1 8 0;
#X connect 4 2 9 0;
#X connect 4 3 10 0;
#X connect 4 4 11 0;
#X connect 7 0 2 0;
#X connect 8 0 3 0;
#X connect 9 0 5 0;
#X connect 10 0 6 0;
#X restore 18 24 pd OSC;
#X obj 667 399 circle;
#X obj 667 248 separator;
#X obj 690 308 unpack f f;
#X obj 700 377 r hand-Size;
#X obj 529 374 colour 1 0 0;
#X obj 690 286 r hand-L;
#X obj 199 491 pack f f;
#X floatatom 199 411 5 0 0 0 - - -, f 5;
#X floatatom 244 409 5 0 0 0 - - -, f 5;
#X obj 244 428 t b f;
#X obj 199 517 s hand-L;
#X obj 251 379 r leftY;
#X obj 195 377 r leftX;
#X obj 139 377 r rightY;
#X obj 76 376 r rightX;
#X obj 535 336 translateXYZ 0 0 -5;
#X obj 667 347 translateXYZ 0 0 -5;
#X obj 531 455 colour 1 1 0;
#X obj 85 522 t b a;
#X obj 77 574 s hand-R-Update;
#X obj 299 501 bng 15 250 50 0 empty empty empty 17 7 0 10 -262144
-1 -1;
#X obj 299 521 s reset;
#N canvas 1 105 149 177 CUBOS 0;
#X obj 11 36 cubo 2;
#X obj 11 11 cubo 1;
#X obj 11 61 cubo 3;
#X obj 11 86 cubo 4;
#X obj 11 111 cubo 5;
#X obj 71 11 cubo 6;
#X obj 71 36 cubo 7;
#X obj 71 61 cubo 8;
#X obj 71 86 cubo 9;
#X obj 71 111 cubo 10;
#X restore 20 50 pd CUBOS;
#X obj 18 261 r reset;
#X obj 69 296 f 0.5;
#X msg 92 72 view 0 0 20 \, perspec -1 1 -1 1 4 50 \, dimen 1024 768
\, lighting 1 \, FSAA 8 \, frame 60 \, create \, 1;
#X obj 258 34 declare -path game;
#X connect 2 0 5 0;
#X connect 3 0 0 0;
#X connect 4 0 0 0;
#X connect 5 0 1 0;
#X connect 6 0 5 1;
#X connect 7 0 0 0;
#X connect 8 0 11 0;
#X connect 9 0 40 0;
#X connect 10 0 38 0;
#X connect 11 0 10 0;
#X connect 11 1 24 0;
#X connect 12 0 41 0;
#X connect 14 0 12 0;
#X connect 15 0 18 0;
#X connect 16 0 17 0;
#X connect 17 0 38 1;
#X connect 17 1 38 2;
#X connect 18 0 12 0;
#X connect 18 1 12 1;
#X connect 20 0 47 0;
#X connect 21 0 9 1;
#X connect 24 0 39 0;
#X connect 25 0 39 1;
#X connect 25 1 39 2;
#X connect 26 0 23 1;
#X connect 27 0 9 0;
#X connect 28 0 25 0;
#X connect 29 0 33 0;
#X connect 30 0 29 0;
#X connect 31 0 32 0;
#X connect 32 0 29 0;
#X connect 32 1 29 1;
#X connect 34 0 31 0;
#X connect 35 0 30 0;
#X connect 36 0 15 0;
#X connect 37 0 14 0;
#X connect 38 0 27 0;
#X connect 39 0 23 0;
#X connect 41 0 42 0;
#X connect 41 1 13 0;
#X connect 43 0 44 0;
#X connect 46 0 47 0;
#X connect 47 0 19 0;
#X connect 48 0 0 0;
