#N canvas 1 77 318 606 10;
#X declare -path game;
#X obj 315 117 gemwin;
#X obj 375 254 world_light;
#X msg 354 66 lighting 1 \, create \, 1;
#X msg 357 88 destroy;
#X obj 375 230 rotateXYZ;
#X floatatom 392 209 5 0 0 0 - - -, f 5;
#N canvas 0 77 1366 666 CAMERA 0;
#X text 43 11 messages to [gemwin] regarding the view-point ("camera")
;
#X text 312 389 perspec <left> <right> <bottom> <top> <front> <back>::
;
#X text 311 407 set the clipping planes of the view-point. this might
be what you need \, if all the objects that re further away than 20
units suddenly disappear;
#X text 311 449 default: -1 1 -1 1 1 20;
#X text 208 51 view <x> <y> <z>::;
#X text 208 70 translate the camera / set the viewpoint:: the viewing-direction
will not be changed.;
#X text 80 119 default: 0 0 4;
#X text 208 98 the viewing direction defaults to "0 0 1" \, with y-axis
as "up";
#X text 303 167 view <x> <y> <z> <azimuth>::;
#X text 303 184 view <x> <y> <z> <azimuth> <elevation>::;
#X text 303 201 translate/rotate camera/viewpoint \; the "up" direction
will still be the y-axis;
#X text 389 284 view <view_x> <view_y> <view_z> <target_x> <target_y>
<target_z> <up_x> <up_y> <up_z>::;
#X text 389 314 set viewpoint (view_X view_Y view_Z). the camera will
look at the target-point (target_X \, target_Y \, target_Z). "up" is
defined via the vector (up_X \, up_Y \, up_Z);
#X text 301 251 default: 0 0 4 0 0;
#X text 389 355 default: 0 0 4 0 0 0 0 1 0;
#X msg 25 101 view \$1 \$2 \$3;
#X msg 42 190 view \$1 \$2 \$3 \$4;
#X msg 49 250 view \$1 \$2 \$3 \$4 \$5;
#X msg 52 330 view \$1 \$2 \$3 \$4 \$5 \$6 \$7 \$8 \$9;
#X msg 101 452 perspec \$1 \$2 \$3 \$4 \$5 \$6;
#X text 310 467 if you want to remove perspective \, see [ortho];
#X msg 66 563 view 0 0 20 \, perspec -1 1 -1 1 4 50;
#N canvas 1299 508 544 500 perspec 0;
#X obj 90 428 outlet;
#X obj 268 273 t f f;
#X obj 268 298 * -1;
#X obj 90 268 t f f;
#X obj 90 293 * -1;
#X obj 90 367 pack -1 1 -1 1 1 20;
#X msg 90 389 set perspec \$1 \$2 \$3 \$4 \$5 \$6 \, bang;
#X msg 172 453 set perspec \, adddollar 1 \, adddollar 2 \, adddollar
3 \, adddollar 4 \, adddollar 5 \, adddollar 6;
#X floatatom 103 117 5 0.1 5 1 x_wideness - -, f 5;
#X floatatom 103 134 5 0.1 5 1 y_wideness - -, f 5;
#X floatatom 103 151 5 0 0 1 z_depth - -, f 5;
#X obj 360 196 select 1;
#X obj 405 219 t b f f;
#X obj 249 226 t b f f;
#X obj 204 203 select 0;
#X obj 360 218 f 20;
#X obj 204 224 f 1;
#X msg 204 246 set \$1;
#X msg 360 240 set \$1;
#X obj 134 216 t b f f;
#X obj 89 193 select 0;
#X obj 89 214 f 1;
#X msg 89 236 set \$1;
#X obj 328 97 loadbang;
#X obj 328 119 t b b;
#X obj 328 141 t b b b;
#X connect 1 0 2 0;
#X connect 1 1 5 3;
#X connect 2 0 5 2;
#X connect 3 0 4 0;
#X connect 3 1 5 1;
#X connect 4 0 5 0;
#X connect 5 0 6 0;
#X connect 6 0 0 0;
#X connect 7 0 0 0;
#X connect 8 0 20 0;
#X connect 9 0 14 0;
#X connect 10 0 11 0;
#X connect 11 0 15 0;
#X connect 11 1 12 0;
#X connect 12 0 5 0;
#X connect 12 1 5 5;
#X connect 12 2 15 1;
#X connect 13 0 5 0;
#X connect 13 1 1 0;
#X connect 13 2 16 1;
#X connect 14 0 16 0;
#X connect 14 1 13 0;
#X connect 15 0 18 0;
#X connect 16 0 17 0;
#X connect 17 0 9 0;
#X connect 18 0 10 0;
#X connect 19 1 3 0;
#X connect 19 2 21 1;
#X connect 20 0 21 0;
#X connect 20 1 19 0;
#X connect 21 0 22 0;
#X connect 22 0 8 0;
#X connect 23 0 24 0;
#X connect 24 0 25 0;
#X connect 24 1 7 0;
#X connect 25 0 21 0;
#X connect 25 1 16 0;
#X connect 25 2 15 0;
#X coords 0 -1 1 1 100 67 1 100 100;
#X restore 101 380 pd perspec;
#X text 292 554 the default camera has a very wide angle. this message
allows to narrow it.;
#N canvas 506 305 612 484 view 0;
#X floatatom 112 114 5 0 0 0 x - -, f 5;
#X floatatom 158 114 5 0 0 0 y - -, f 5;
#X floatatom 201 114 5 0 0 0 z - -, f 5;
#X floatatom 236 114 5 0 0 2 azimuth - -, f 5;
#X obj 369 109 loadbang;
#X obj 140 335 outlet;
#X obj 201 226 t b f;
#X obj 150 227 t b f;
#X obj 369 131 t b b;
#X msg 213 342 set view \, adddollar 1 \, adddollar 2 \, adddollar
3 \, adddollar 4;
#X obj 140 274 pack 0 0 4 0;
#X obj 251 226 t b f;
#X msg 398 196 set 4;
#X msg 140 296 set view \$1 \$2 \$3 \$4 \, bang;
#X connect 0 0 10 0;
#X connect 1 0 7 0;
#X connect 2 0 6 0;
#X connect 3 0 11 0;
#X connect 4 0 8 0;
#X connect 6 0 10 0;
#X connect 6 1 10 2;
#X connect 7 0 10 0;
#X connect 7 1 10 1;
#X connect 8 0 12 0;
#X connect 8 1 9 0;
#X connect 9 0 5 0;
#X connect 10 0 13 0;
#X connect 11 0 10 0;
#X connect 11 1 10 3;
#X connect 12 0 2 0;
#X connect 13 0 5 0;
#X coords 0 -1 1 1 180 30 1 100 100;
#X restore 42 156 pd view;
#N canvas 508 299 612 484 view 0;
#X floatatom 112 114 5 0 0 0 x - -, f 5;
#X floatatom 158 114 5 0 0 0 y - -, f 5;
#X floatatom 201 114 5 0 0 0 z - -, f 5;
#X floatatom 236 114 5 0 0 2 azimuth - -, f 5;
#X obj 369 109 loadbang;
#X obj 140 335 outlet;
#X obj 201 226 t b f;
#X obj 150 227 t b f;
#X obj 369 131 t b b;
#X obj 251 226 t b f;
#X msg 398 196 set 4;
#X msg 140 296 set view \$1 \$2 \$3 \$4 \$5 \, bang;
#X obj 140 274 pack 0 0 4 0 0;
#X floatatom 286 114 5 0 0 2 elevate - -, f 5;
#X obj 291 226 t b f;
#X msg 213 342 set view \, adddollar 1 \, adddollar 2 \, adddollar
3 \, adddollar 4 \, adddollar 5;
#X connect 0 0 12 0;
#X connect 1 0 7 0;
#X connect 2 0 6 0;
#X connect 3 0 9 0;
#X connect 4 0 8 0;
#X connect 6 0 12 0;
#X connect 6 1 12 2;
#X connect 7 0 12 0;
#X connect 7 1 12 1;
#X connect 8 0 10 0;
#X connect 8 1 15 0;
#X connect 9 0 12 0;
#X connect 9 1 12 3;
#X connect 10 0 2 0;
#X connect 11 0 5 0;
#X connect 12 0 11 0;
#X connect 13 0 14 0;
#X connect 14 0 12 0;
#X connect 14 1 12 4;
#X connect 15 0 5 0;
#X coords 0 -1 1 1 230 30 1 100 100;
#X restore 49 216 pd view;
#N canvas 509 296 612 484 view 0;
#X floatatom 112 114 5 0 0 0 x - -, f 5;
#X floatatom 158 114 5 0 0 0 y - -, f 5;
#X floatatom 201 114 5 0 0 0 z - -, f 5;
#X obj 369 109 loadbang;
#X obj 140 335 outlet;
#X obj 201 226 t b f;
#X obj 150 227 t b f;
#X obj 369 131 t b b;
#X msg 398 196 set 4;
#X obj 140 274 pack 0 0 4;
#X msg 140 296 set view \$1 \$2 \$3 \, bang;
#X msg 213 342 set view \, adddollar 1 \, adddollar 2 \, adddollar
3;
#X connect 0 0 9 0;
#X connect 1 0 6 0;
#X connect 2 0 5 0;
#X connect 3 0 7 0;
#X connect 5 0 9 0;
#X connect 5 1 9 2;
#X connect 6 0 9 0;
#X connect 6 1 9 1;
#X connect 7 0 8 0;
#X connect 7 1 11 0;
#X connect 8 0 2 0;
#X connect 9 0 10 0;
#X connect 10 0 4 0;
#X connect 11 0 4 0;
#X coords 0 -1 1 1 140 30 1 100 100;
#X restore 25 65 pd view;
#N canvas 380 50 612 484 view 0;
#X floatatom 214 114 5 0 0 2 X - -, f 5;
#X obj 166 22 loadbang;
#X obj 139 335 outlet;
#X obj 174 177 t b f;
#X obj 139 177 t b f;
#X obj 214 177 t b f;
#X msg 174 79 set 4;
#X floatatom 249 114 5 0 0 2 Y - -, f 5;
#X obj 249 177 t b f;
#X obj 139 274 pack 0 0 4 0 0 0 0 1 0;
#X floatatom 284 114 5 0 0 2 Z - -, f 5;
#X floatatom 104 114 5 0 0 2 x - -, f 5;
#X floatatom 139 114 5 0 0 2 y - -, f 5;
#X floatatom 174 114 5 0 0 2 z - -, f 5;
#X floatatom 324 114 5 0 0 2 upX - -, f 5;
#X floatatom 359 114 5 0 0 2 upY - -, f 5;
#X floatatom 394 114 5 0 0 2 upZ - -, f 5;
#X obj 284 177 t b f;
#X obj 324 177 t b f;
#X obj 359 177 t b f;
#X obj 394 177 t b f;
#X obj 324 199 t b;
#X obj 214 199 t b;
#X msg 139 296 set view \$1 \$2 \$3 \$4 \$5 \$6 \$7 \$8 \$9 \, bang
;
#X msg 251 22 set view \, adddollar 1 \, adddollar 2 \, adddollar 3
\, adddollar 4 \, adddollar 5 \, adddollar 6 \, adddollar 7 \, adddollar
8 \, adddollar 9;
#X obj 166 44 t b b b;
#X msg 359 79 set 1;
#X connect 0 0 5 0;
#X connect 1 0 25 0;
#X connect 3 0 9 0;
#X connect 3 1 9 2;
#X connect 4 0 9 0;
#X connect 4 1 9 1;
#X connect 5 0 22 0;
#X connect 5 1 9 3;
#X connect 6 0 13 0;
#X connect 7 0 8 0;
#X connect 8 0 22 0;
#X connect 8 1 9 4;
#X connect 9 0 23 0;
#X connect 10 0 17 0;
#X connect 11 0 9 0;
#X connect 12 0 4 0;
#X connect 13 0 3 0;
#X connect 14 0 18 0;
#X connect 15 0 19 0;
#X connect 16 0 20 0;
#X connect 17 0 22 0;
#X connect 17 1 9 5;
#X connect 18 0 21 0;
#X connect 18 1 9 6;
#X connect 19 0 21 0;
#X connect 19 1 9 7;
#X connect 20 0 21 0;
#X connect 20 1 9 8;
#X connect 21 0 22 0;
#X connect 22 0 9 0;
#X connect 23 0 2 0;
#X connect 24 0 2 0;
#X connect 25 0 6 0;
#X connect 25 1 26 0;
#X connect 25 2 24 0;
#X connect 26 0 15 0;
#X coords 0 -1 1 1 330 30 2 100 100;
#X restore 52 296 pd view;
#X text 309 229 azimuth and elevation are in degree [°];
#X obj 25 588 outlet;
#X connect 15 0 29 0;
#X connect 16 0 29 0;
#X connect 17 0 29 0;
#X connect 18 0 29 0;
#X connect 19 0 29 0;
#X connect 21 0 29 0;
#X connect 22 0 19 0;
#X connect 24 0 16 0;
#X connect 25 0 17 0;
#X connect 26 0 15 0;
#X connect 27 0 18 0;
#X restore 252 87 pd CAMERA;
#N canvas 1 77 683 514 OSC 0;
#X obj 65 15 udpreceive 5005;
#X obj 65 36 unpackOSC;
#X obj 67 400 s leftY;
#X obj 173 356 s leftX;
#X obj 186 298 s rightY;
#X obj 215 224 s rightX;
#X obj 428 111 print UNKNOWN-OSC-INPUT;
#X text 219 25 RECEIVE OSC FROM PORT 5005;
#X obj 375 254 r reset;
#X floatatom 79 113 5 0 0 0 - - -, f 5;
#X obj 562 147 t f f;
#X obj 544 193 < 0;
#X obj 538 221 change;
#X obj 612 156 t f f;
#X obj 610 199 < 0;
#X obj 604 227 change;
#X obj 549 266 +;
#X obj 540 315 change;
#X obj 546 287 == 0;
#X obj 540 340 tgl 15 0 empty empty empty 17 7 0 10 -262144 -1 -1 0
1;
#X floatatom 128 116 5 0 0 0 - - -, f 5;
#X obj 215 203 handConverter-X;
#X obj 67 379 handConverter-Y;
#X obj 173 334 handConverter-X;
#X obj 186 276 handConverter-Y;
#X obj 262 127 s leftNO;
#X obj 339 147 s rightNO;
#X obj 286 483 tgl 15 0 empty empty empty 17 7 0 10 -262144 -1 -1 1
1;
#X obj 202 501 print;
#X obj 275 454 udpsend;
#X obj 312 426 packOSC;
#X msg 296 344 send /foto 1;
#X obj 319 310 r tiraFoto;
#X obj 297 319 bng 15 250 50 0 empty empty empty 17 7 0 10 -262144
-1 -1;
#X msg 151 449 disconnect;
#X msg 150 415 connect 192.168.1.71 8080;
#X obj 410 344 r tiraFoto;
#X obj 392 367 t b b;
#X msg 461 419 connect 192.168.1.71 8080;
#X obj 374 393 delay 200;
#X msg 307 377 send /foto 1;
#X obj 67 69 routeOSC /leftY /leftX /rightY /rightX /leftNO /rightNO
/bodyN;
#X floatatom 476 253 5 0 0 0 - - -, f 5;
#X obj 476 275 change;
#X obj 476 297 print;
#X obj 20 303 spigot;
#X obj 88 304 spigot;
#X obj 470 180 == 0;
#X obj 470 202 s isBody;
#X obj 37 267 r isBody;
#X obj 111 273 r isBody;
#X obj 153 176 spigot;
#X obj 221 177 spigot;
#X obj 170 140 r isBody;
#X obj 244 146 r isBody;
#X obj 476 147 r setBody;
#X connect 0 0 1 0;
#X connect 1 0 41 0;
#X connect 8 0 5 0;
#X connect 8 0 4 0;
#X connect 8 0 3 0;
#X connect 8 0 2 0;
#X connect 10 0 11 0;
#X connect 11 0 12 0;
#X connect 12 0 16 0;
#X connect 13 0 14 0;
#X connect 14 0 15 0;
#X connect 15 0 16 1;
#X connect 16 0 18 0;
#X connect 17 0 19 0;
#X connect 18 0 17 0;
#X connect 21 0 5 0;
#X connect 22 0 2 0;
#X connect 23 0 3 0;
#X connect 24 0 4 0;
#X connect 29 0 27 0;
#X connect 29 0 28 0;
#X connect 30 0 29 0;
#X connect 32 0 31 0;
#X connect 32 0 33 0;
#X connect 34 0 29 0;
#X connect 35 0 29 0;
#X connect 36 0 37 0;
#X connect 37 0 39 0;
#X connect 37 1 38 0;
#X connect 38 0 29 0;
#X connect 39 0 40 0;
#X connect 40 0 30 0;
#X connect 41 0 9 0;
#X connect 41 0 45 0;
#X connect 41 1 20 0;
#X connect 41 1 46 0;
#X connect 41 2 51 0;
#X connect 41 3 52 0;
#X connect 41 6 42 0;
#X connect 41 6 47 0;
#X connect 41 7 6 0;
#X connect 42 0 43 0;
#X connect 43 0 44 0;
#X connect 45 0 22 0;
#X connect 46 0 23 0;
#X connect 47 0 48 0;
#X connect 49 0 45 1;
#X connect 50 0 46 1;
#X connect 51 0 24 0;
#X connect 52 0 21 0;
#X connect 53 0 51 1;
#X connect 54 0 52 1;
#X connect 55 0 47 1;
#X restore 10 83 pd OSC;
#X obj 136 82 bng 15 250 50 0 empty empty empty 17 7 0 10 -262144 -1
-1;
#X obj 136 102 s reset;
#N canvas 1 531 412 190 CUBOS 1;
#X obj 11 12 cubo 1;
#X text 21 146 GENERATE FALLING CUBES;
#X obj 11 36 cubo 2;
#X obj 11 61 cubo 3;
#X obj 11 86 cubo 4;
#X obj 11 111 cubo 5;
#X obj 71 11 cubo 6;
#X obj 71 36 cubo 7;
#X obj 71 61 cubo 8;
#X obj 71 86 cubo 9;
#X obj 71 111 cubo 10;
#X obj 121 13 cubo 11;
#X obj 121 38 cubo 12;
#X obj 128 62 cubo 13;
#X obj 128 87 cubo 14;
#X obj 128 112 cubo 15;
#X obj 181 15 cubo 16;
#X obj 181 40 cubo 17;
#X obj 188 64 cubo 18;
#X obj 188 89 cubo 19;
#X obj 188 114 cubo 20;
#X restore 10 105 pd CUBOS;
#X obj 10 8 declare -path game;
#N canvas 1 218 681 466 PONTOS 0;
#X obj 77 20 r somaPontos;
#X obj 104 364 s pontos;
#X obj 161 2 r reset;
#X obj 24 82 bng 15 250 50 0 empty empty empty 17 7 0 10 -262144 -1
-1;
#X obj 303 136 alpha;
#X floatatom 378 385 5 0 0 0 - - -, f 5;
#X obj 303 94 gemhead 10;
#X obj 305 61 tgl 15 0 empty empty empty 17 7 0 10 -262144 -1 -1 0
1;
#X obj 378 260 loadbang;
#X msg 405 304 font game/orbitron-light.otf;
#X floatatom 337 193 5 0 0 0 - - -, f 5;
#X floatatom 386 192 5 0 0 0 - - -, f 5;
#X floatatom 201 280 5 0 0 0 - - -, f 5;
#X msg 201 302 text Pontos: \$1;
#X obj 378 282 t b b;
#X msg 378 360 30;
#X obj 201 256 r pontos;
#X obj 303 218 translateXYZ 5.25 4 0;
#X obj 427 -3 r perdePonto;
#X obj 427 25 t b b;
#X msg 505 77 0;
#X msg 70 64 up \, bang;
#X msg 186 130 down \, bang;
#X floatatom 20 261 5 0 0 0 - - -, f 5;
#X obj 186 74 r perdePonto;
#X msg 160 35 jam 0;
#X obj 70 202 cyclone/counter -100 999;
#X obj 121 309 s gameOver;
#X obj 427 56 delay 170;
#X obj 303 409 text2d Pontos;
#X obj 593 66 alpha;
#X floatatom 668 300 5 0 0 0 - - -, f 5;
#X obj 593 4 tgl 15 0 empty empty empty 17 7 0 10 -262144 -1 -1 0 1
;
#X obj 668 175 loadbang;
#X msg 695 219 font game/orbitron-light.otf;
#X floatatom 627 123 5 0 0 0 - - -, f 5;
#X floatatom 676 122 5 0 0 0 - - -, f 5;
#X obj 668 197 t b b;
#X obj 593 24 gemhead 11;
#X obj 593 147 translateXYZ 5.25 3.3 0;
#X msg 668 275 20;
#X obj 593 354 text2d Top;
#X floatatom 736 279 5 0 0 0 - - -, f 5;
#X msg 736 301 text Top: \$1;
#X obj 70 448 spigot;
#X obj 70 232 t f f f f;
#X obj 87 419 > 0;
#X obj 70 475 s top;
#X obj 102 394 r top;
#X obj 128 447 tgl 15 0 empty empty empty 17 7 0 10 -262144 -1 -1 0
1;
#X obj 736 255 r top;
#X obj 121 283 sel 1;
#X obj 186 103 repeat 3;
#X obj 121 261 < 0;
#X obj 303 158 colourRGB 0.4 1 0.1 1;
#X obj 416 91 t f f;
#X msg 390 116 1;
#X msg 425 116 0.1;
#X obj 593 88 colourRGB 0.4 1 0.1 1;
#X text 161 365 PONTOS;
#X connect 0 0 3 0;
#X connect 0 0 21 0;
#X connect 2 0 25 0;
#X connect 4 0 54 0;
#X connect 5 0 29 1;
#X connect 6 0 4 0;
#X connect 7 0 6 0;
#X connect 8 0 14 0;
#X connect 9 0 29 0;
#X connect 10 0 17 1;
#X connect 11 0 17 2;
#X connect 12 0 13 0;
#X connect 13 0 29 0;
#X connect 14 0 15 0;
#X connect 14 1 9 0;
#X connect 15 0 5 0;
#X connect 16 0 12 0;
#X connect 17 0 29 0;
#X connect 18 0 19 0;
#X connect 19 0 28 0;
#X connect 19 1 20 0;
#X connect 20 0 54 2;
#X connect 20 0 54 3;
#X connect 21 0 26 0;
#X connect 22 0 26 0;
#X connect 24 0 52 0;
#X connect 25 0 26 0;
#X connect 26 0 45 0;
#X connect 28 0 55 0;
#X connect 30 0 58 0;
#X connect 31 0 41 1;
#X connect 32 0 38 0;
#X connect 33 0 37 0;
#X connect 34 0 41 0;
#X connect 35 0 39 1;
#X connect 36 0 39 2;
#X connect 37 0 40 0;
#X connect 37 1 34 0;
#X connect 38 0 30 0;
#X connect 39 0 41 0;
#X connect 40 0 31 0;
#X connect 42 0 43 0;
#X connect 43 0 41 0;
#X connect 44 0 47 0;
#X connect 45 0 23 0;
#X connect 45 0 44 0;
#X connect 45 1 46 0;
#X connect 45 2 1 0;
#X connect 45 3 53 0;
#X connect 46 0 44 1;
#X connect 46 0 49 0;
#X connect 48 0 46 1;
#X connect 50 0 42 0;
#X connect 51 0 27 0;
#X connect 52 0 22 0;
#X connect 53 0 51 0;
#X connect 54 0 17 0;
#X connect 55 0 56 0;
#X connect 55 1 57 0;
#X connect 56 0 54 2;
#X connect 57 0 54 3;
#X connect 58 0 39 0;
#X restore 9 156 pd PONTOS;
#N canvas 59 188 609 468 FUNDO 0;
#X floatatom 75 43 5 0 0 0 - - -, f 5;
#X floatatom 119 47 5 0 0 0 - - -, f 5;
#X floatatom 179 51 5 0 0 0 - - -, f 5;
#X obj 40 374 pix_image;
#X obj 40 396 pix_texture;
#X floatatom 98 420 5 0 0 0 - - -, f 5;
#X floatatom 157 422 5 0 0 0 - - -, f 5;
#X obj 40 80 translateXYZ 0 1.84 -10;
#X obj 40 441 rectangle 11.07 9.33;
#X obj 40 14 gemhead 1;
#X obj 7 16 tgl 15 0 empty empty empty 17 7 0 10 -262144 -1 -1 0 1
;
#X msg 54 213 open /home/x/Documents/pd/EPI-game/game/fundos/fundo-01.png
;
#X msg 63 243 open /home/x/Documents/pd/EPI-game/game/fundos/fundo-02.png
;
#X msg 80 269 open /home/x/Documents/pd/EPI-game/game/fundos/fundo-03.png
;
#X msg 90 299 open /home/x/Documents/pd/EPI-game/game/fundos/fundo-04.png
;
#X msg 101 329 open /home/x/Documents/pd/EPI-game/game/fundos/fundo-05.png
;
#X obj 345 47 r reset;
#X obj 345 69 random 5;
#X obj 345 91 sel 0 1 2 3 4;
#X connect 0 0 7 1;
#X connect 1 0 7 2;
#X connect 2 0 7 3;
#X connect 3 0 4 0;
#X connect 4 0 8 0;
#X connect 5 0 8 1;
#X connect 6 0 8 2;
#X connect 7 0 3 0;
#X connect 9 0 7 0;
#X connect 10 0 9 0;
#X connect 11 0 3 0;
#X connect 12 0 3 0;
#X connect 13 0 3 0;
#X connect 14 0 3 0;
#X connect 15 0 3 0;
#X connect 16 0 17 0;
#X connect 17 0 18 0;
#X connect 18 0 11 0;
#X connect 18 1 12 0;
#X connect 18 2 13 0;
#X connect 18 3 14 0;
#X connect 18 4 15 0;
#X restore 12 129 pd FUNDO;
#X obj 144 13 r pontos;
#X obj 144 38 nbx 3 25 -1e+37 1e+37 0 0 empty empty empty 0 -8 0 20
-262144 -1 -1 -2 256;
#X msg 330 20 reset \, view 0 0 20 \, perspec -1 1 -1 1 4 50 \, dimen
1024 768 \, lighting 1 \, FSAA 8 \, frame 30 \, create \, 1;
#N canvas 81 242 460 232 MAOS 0;
#X obj 298 22 r hand-L;
#X obj 70 109 s hand-Size;
#X floatatom 74 22 5 0 0 0 - - -, f 5;
#X obj 17 18 r reset;
#X obj 191 51 r hand-R;
#X obj 144 79 fireball 1;
#X obj 70 86 min 1;
#X obj 68 53 f 0.8;
#X obj 245 74 fireball 2;
#X obj 146 23 r leftNO;
#X obj 155 120 tgl 15 0 empty empty empty 17 7 0 10 -262144 -1 -1 0
1;
#X obj 234 20 r rightNO;
#N canvas 4 106 676 590 FAKE 0;
#X obj 139 75 hid;
#X msg 155 41 open 12;
#X obj 123 46 tgl 15 0 empty empty empty 17 7 0 10 -262144 -1 -1 1
1;
#X obj 81 147 print;
#X obj 154 160 route abs_x abs_y;
#X obj 144 119 route abs;
#X obj 134 209 t f f f;
#X obj 146 411 cyclone/counter -100 100;
#X obj 123 239 sel 0;
#X obj 168 240 sel 127;
#X obj 226 235 sel 255;
#X msg 217 294 0;
#X msg 133 302 1;
#X obj 45 322 tgl 15 0 empty empty empty 17 7 0 10 -262144 -1 -1 0
1;
#X obj 140 518 s leftX;
#X obj 108 269 t b b;
#X msg 49 295 1;
#X obj 237 267 t b b;
#X msg 5 294 0;
#X obj 187 352 bng 15 250 50 0 empty empty empty 17 7 0 10 -262144
-1 -1;
#X floatatom 97 185 5 0 0 0 - - -, f 5;
#X floatatom 85 441 5 0 0 0 - - -, f 5;
#X floatatom 207 444 5 0 0 0 - - -, f 5;
#X msg 233 367 jam \$1;
#X floatatom 237 336 5 0 0 0 - - -, f 5;
#X msg 237 61 refresh;
#X obj 46 355 metro 30;
#X obj 140 457 * 0.2;
#X floatatom 519 228 5 0 0 0 - - -, f 5;
#X obj 450 238 t f f f;
#X obj 462 440 cyclone/counter -100 100;
#X obj 439 268 sel 0;
#X obj 484 269 sel 127;
#X obj 542 264 sel 255;
#X obj 361 351 tgl 15 0 empty empty empty 17 7 0 10 -262144 -1 -1 0
1;
#X obj 424 298 t b b;
#X msg 365 324 1;
#X obj 553 296 t b b;
#X msg 321 323 0;
#X obj 503 381 bng 15 250 50 0 empty empty empty 17 7 0 10 -262144
-1 -1;
#X floatatom 413 214 5 0 0 0 - - -, f 5;
#X floatatom 401 470 5 0 0 0 - - -, f 5;
#X floatatom 523 473 5 0 0 0 - - -, f 5;
#X msg 549 396 jam \$1;
#X floatatom 553 365 5 0 0 0 - - -, f 5;
#X obj 362 384 metro 30;
#X obj 456 486 * 0.2;
#X obj 456 547 s leftY;
#X msg 449 331 0;
#X msg 533 323 1;
#X connect 0 0 3 0;
#X connect 0 0 5 0;
#X connect 0 1 3 0;
#X connect 1 0 0 0;
#X connect 2 0 0 0;
#X connect 4 0 6 0;
#X connect 4 0 20 0;
#X connect 4 1 29 0;
#X connect 5 0 4 0;
#X connect 6 0 8 0;
#X connect 6 1 9 0;
#X connect 6 2 10 0;
#X connect 7 0 21 0;
#X connect 7 0 27 0;
#X connect 8 0 15 0;
#X connect 9 0 18 0;
#X connect 9 0 19 0;
#X connect 10 0 17 0;
#X connect 11 0 7 1;
#X connect 12 0 7 1;
#X connect 13 0 26 0;
#X connect 15 0 12 0;
#X connect 15 1 16 0;
#X connect 16 0 13 0;
#X connect 17 0 11 0;
#X connect 17 1 16 0;
#X connect 18 0 13 0;
#X connect 23 0 7 0;
#X connect 24 0 23 0;
#X connect 25 0 0 0;
#X connect 26 0 7 0;
#X connect 27 0 14 0;
#X connect 29 0 31 0;
#X connect 29 1 32 0;
#X connect 29 2 33 0;
#X connect 30 0 41 0;
#X connect 30 0 46 0;
#X connect 31 0 35 0;
#X connect 32 0 38 0;
#X connect 32 0 39 0;
#X connect 33 0 37 0;
#X connect 34 0 45 0;
#X connect 35 0 48 0;
#X connect 35 1 36 0;
#X connect 36 0 34 0;
#X connect 37 0 49 0;
#X connect 37 1 36 0;
#X connect 38 0 34 0;
#X connect 43 0 30 0;
#X connect 44 0 43 0;
#X connect 45 0 30 0;
#X connect 46 0 47 0;
#X connect 48 0 30 1;
#X connect 49 0 30 1;
#X restore 294 152 pd FAKE;
#X obj 240 124 tgl 15 0 empty empty empty 17 7 0 10 -262144 -1 -1 1
1;
#X connect 0 0 8 1;
#X connect 2 0 7 0;
#X connect 3 0 7 0;
#X connect 4 0 5 1;
#X connect 6 0 1 0;
#X connect 7 0 6 0;
#X connect 9 0 5 0;
#X connect 11 0 8 0;
#X connect 13 0 8 0;
#X connect 13 0 5 0;
#X restore 11 201 pd MAOS;
#X obj 183 423 pack f f;
#X obj 210 477 s hand-R;
#X floatatom 183 294 5 0 0 0 - - -, f 5;
#X floatatom 201 358 5 0 0 0 - - -, f 5;
#X obj 201 377 t b f;
#X obj 26 444 pack f f;
#X floatatom 26 310 5 0 0 0 - - -, f 5;
#X floatatom 44 376 5 0 0 0 - - -, f 5;
#X obj 44 397 t b f;
#X obj 44 355 r leftY;
#X obj 26 288 r leftX;
#X obj 201 337 r rightY;
#X obj 183 274 r rightX;
#X obj 183 452 t b a;
#X obj 183 501 s hand-R-Update;
#X obj 26 467 t b a;
#X obj 26 512 s hand-L-Update;
#X obj 53 490 s hand-L;
#X obj 401 368 bng 15 250 50 0 empty empty empty 17 7 0 10 -262144
-1 -1;
#X obj 401 388 s resetScalar;
#X obj 26 329 handSmoothSig;
#X obj 71 421 handSmoothSig;
#X obj 183 314 handSmoothSig;
#X obj 228 401 handSmoothSig;
#X obj 375 185 gemhead -60;
#X obj 403 465 s cubeTrans;
#X floatatom 403 444 5 0 0 0 - - -, f 5;
#X floatatom 327 449 5 0 0 0 - - -, f 5;
#X obj 327 470 s rotaSpeed;
#N canvas 18 77 412 630 GAMEOVER 0;
#X obj 34 191 alpha;
#X floatatom 175 410 5 0 0 0 - - -, f 5;
#X obj 34 86 gemhead 10;
#X obj 34 67 tgl 15 0 empty empty empty 17 7 0 10 -262144 -1 -1 1 1
;
#X obj 175 285 loadbang;
#X msg 202 329 font game/orbitron-light.otf;
#X floatatom 68 248 5 0 0 0 - - -, f 5;
#X floatatom 117 247 5 0 0 0 - - -, f 5;
#X obj 175 307 t b b;
#X obj 34 464 text2d Game Over;
#X obj 34 589 text2d Tenta Outra Vez;
#X floatatom 110 497 5 0 0 0 - - -, f 5;
#X obj 175 484 - 40;
#X obj 34 273 translateXYZ 0 3 1;
#X obj 34 533 translateXYZ 0 -1.5 0;
#X obj 61 136 decide;
#X obj 34 169 gate;
#X obj 34 107 t a b;
#X msg 34 34 1;
#X obj 106 2 r reset;
#X msg 106 25 0;
#X obj 34 11 r gameOver;
#X msg 175 385 106;
#X obj 197 34 vsl 15 128 0 1 0 0 empty empty empty 0 -9 0 10 -262144
-1 -1 0 1;
#X floatatom 197 170 5 0 0 0 - - -, f 5;
#X obj 242 35 vsl 15 128 0 1 0 0 empty empty empty 0 -9 0 10 -262144
-1 -1 0 1;
#X floatatom 242 171 5 0 0 0 - - -, f 5;
#X obj 282 38 vsl 15 128 0 1 0 0 empty empty empty 0 -9 0 10 -262144
-1 -1 0 1;
#X floatatom 282 174 5 0 0 0 - - -, f 5;
#X obj 34 213 colourRGB 0.4 1 0.1 1;
#X connect 0 0 29 0;
#X connect 1 0 9 1;
#X connect 1 0 12 0;
#X connect 2 0 17 0;
#X connect 3 0 2 0;
#X connect 4 0 8 0;
#X connect 5 0 9 0;
#X connect 5 0 10 0;
#X connect 6 0 13 1;
#X connect 7 0 13 2;
#X connect 8 0 22 0;
#X connect 8 1 5 0;
#X connect 9 0 14 0;
#X connect 11 0 14 2;
#X connect 12 0 10 1;
#X connect 13 0 9 0;
#X connect 14 0 10 0;
#X connect 15 0 16 0;
#X connect 16 0 0 0;
#X connect 17 0 16 1;
#X connect 17 1 15 0;
#X connect 18 0 3 0;
#X connect 19 0 20 0;
#X connect 20 0 3 0;
#X connect 21 0 18 0;
#X connect 22 0 1 0;
#X connect 23 0 24 0;
#X connect 24 0 29 1;
#X connect 25 0 26 0;
#X connect 26 0 29 2;
#X connect 27 0 28 0;
#X connect 28 0 29 3;
#X connect 29 0 13 0;
#X restore 9 179 pd GAMEOVER;
#X text 420 365 Reset autoscale from hands input;
#X obj 14 38 import mrpeach;
#X obj 158 563 s tiraFoto;
#X obj 158 539 bng 15 250 50 0 empty empty empty 17 7 0 10 -262144
-1 -1;
#X floatatom 145 150 5 0 0 0 - - -, f 5;
#X obj 140 178 s setBody;
#N canvas 1 104 716 565 CUBO-FOTO 0;
#X floatatom 354 294 5 0 0 0 - - -, f 5;
#X floatatom 158 484 5 0 0 0 - - -, f 5;
#X obj 72 195 f;
#X obj 72 217 + 1;
#X floatatom 178 153 5 0 0 0 - - -, f 5;
#X obj 72 265 / 500;
#X obj 53 53 t a b b;
#X obj 99 312 sel 0;
#X obj 72 288 t f f;
#X obj 131 -148 onebang;
#X obj 131 -214 sel 1;
#X obj 170 -176 t b b;
#X msg 128 -124 0;
#X floatatom 535 277 5 0 0 0 - - -, f 5;
#X obj 536 231 * 1;
#X obj 535 254 + 450;
#X obj 151 128 t b f;
#X msg 96 171 0;
#X obj 53 30 alpha;
#X obj 354 248 * 14;
#X obj 354 270 - 7;
#X obj 536 187 random 90;
#X obj 536 209 - 45;
#X obj 354 204 random 4000;
#X obj 354 226 / 4000;
#X text 442 135 Random speed * game speed;
#N canvas 1 77 1069 450 COLISIONS 0;
#X floatatom 679 367 5 0 0 0 - - -, f 5;
#X floatatom 703 345 5 0 0 0 - - -, f 5;
#X floatatom 728 322 5 0 0 0 - - -, f 5;
#X msg 684 220 setRmin 0;
#X obj 507 152 r hand-Size;
#X msg 551 251 setRmax \$1;
#X obj 569 56 r hand-R;
#X obj 569 78 unpack f f;
#X obj 790 206 pack f f;
#X obj 814 169 t b f;
#X obj 656 289 tSphere3D;
#X msg 680 194 setZ -5;
#X msg 790 231 position3D \$1 \$2 -5;
#X floatatom 536 210 5 0 0 0 - - -, f 5;
#X obj 863 182 bng 15 250 50 0 empty empty empty 17 7 0 10 -262144
-1 -1;
#X obj 859 147 r hand-R-Update;
#X msg 569 114 setY \$1;
#X msg 634 116 setX \$1;
#X obj 507 189 * 1.5;
#X floatatom 163 324 5 0 0 0 - - -, f 5;
#X floatatom 187 302 5 0 0 0 - - -, f 5;
#X floatatom 212 279 5 0 0 0 - - -, f 5;
#X msg 191 177 setRmin 0;
#X obj 14 109 r hand-Size;
#X msg 58 208 setRmax \$1;
#X obj 76 35 unpack f f;
#X obj 297 163 pack f f;
#X obj 321 126 t b f;
#X obj 163 246 tSphere3D;
#X msg 187 151 setZ -5;
#X msg 297 188 position3D \$1 \$2 -5;
#X floatatom 43 167 5 0 0 0 - - -, f 5;
#X obj 370 139 bng 15 250 50 0 empty empty empty 17 7 0 10 -262144
-1 -1;
#X msg 76 71 setY \$1;
#X msg 141 73 setX \$1;
#X obj 76 13 r hand-L;
#X obj 14 146 * 1.5;
#X obj 366 104 r hand-L-Update;
#X obj 110 387 s Foto-colision;
#X obj 656 405 s Foto-colision;
#X obj 790 92 r Foto-posY;
#X obj 814 122 r Foto-posX;
#X obj 297 49 r Foto-posY;
#X obj 321 78 r Foto-posX;
#X obj 201 108 r Foto-reset;
#X obj 678 154 r Foto-reset;
#X connect 3 0 10 0;
#X connect 4 0 18 0;
#X connect 5 0 10 0;
#X connect 6 0 7 0;
#X connect 7 0 16 0;
#X connect 7 1 17 0;
#X connect 8 0 12 0;
#X connect 9 0 8 0;
#X connect 9 1 8 1;
#X connect 10 0 0 0;
#X connect 10 0 39 0;
#X connect 10 1 1 0;
#X connect 10 2 2 0;
#X connect 11 0 10 0;
#X connect 12 0 10 0;
#X connect 13 0 5 0;
#X connect 14 0 8 0;
#X connect 15 0 14 0;
#X connect 16 0 10 0;
#X connect 17 0 10 0;
#X connect 18 0 13 0;
#X connect 22 0 28 0;
#X connect 23 0 36 0;
#X connect 24 0 28 0;
#X connect 25 0 33 0;
#X connect 25 1 34 0;
#X connect 26 0 30 0;
#X connect 27 0 26 0;
#X connect 27 1 26 1;
#X connect 28 0 19 0;
#X connect 28 0 38 0;
#X connect 28 1 20 0;
#X connect 28 2 21 0;
#X connect 29 0 28 0;
#X connect 30 0 28 0;
#X connect 31 0 24 0;
#X connect 32 0 26 0;
#X connect 33 0 28 0;
#X connect 34 0 28 0;
#X connect 35 0 25 0;
#X connect 36 0 31 0;
#X connect 37 0 32 0;
#X connect 40 0 8 0;
#X connect 41 0 9 0;
#X connect 42 0 26 0;
#X connect 43 0 27 0;
#X connect 44 0 29 0;
#X connect 44 0 22 0;
#X connect 45 0 11 0;
#X connect 45 0 3 0;
#X restore 356 25 pd COLISIONS;
#X obj 53 505 translateXYZ 0 0 0;
#X obj 53 0 gemhead;
#X text 151 407 Falling cube;
#X obj 99 333 t b b;
#X text 137 311 Passou o fundo;
#X obj 72 362 * -11;
#X obj 72 384 + 5.5;
#X obj 535 297 -;
#X obj 131 -238 r Foto-colision;
#X obj 170 -198 r Foto-reset;
#X obj 612 98 s Foto-reset;
#X obj 53 617 colourRGB 1 1 1 1;
#X obj 53 -21 tgl 15 0 empty empty empty 17 7 0 10 -262144 -1 -1 0
1;
#X obj 126 375 s Foto-Fim;
#X obj 92 78 s Foto-newFrame;
#X obj 354 318 s Foto-posX;
#X obj 456 155 r Foto-reset;
#X obj 536 154 r Foto-Fim;
#X obj 31 -104 loadbang;
#X msg 31 -82 0;
#X obj 612 56 bng 15 250 50 0 empty empty empty 17 7 0 10 -262144 -1
-1;
#X msg 177 -108 1;
#X obj 289 171 r Foto-reset;
#X obj 374 171 r Foto-Fim;
#X obj 95 -181 bng 15 250 50 0 empty empty empty 17 7 0 10 -262144
-1 -1;
#X obj 72 407 s Foto-posY;
#X obj 88 441 r Foto-posX;
#X obj 123 465 r Foto-posY;
#X obj 165 -45 s GoFlash;
#X obj 378 -68 gemhead;
#X obj 378 -46 translateXYZ 0 0 2;
#X obj 378 -24 square 10;
#X obj 445 -166 loadbang;
#X msg 441 -138 0;
#X obj 357 -233 r GoFlash;
#X obj 282 -191 bng 15 250 50 0 empty empty empty 17 7 0 10 -262144
-1 -1;
#X obj 378 -101 tgl 15 0 empty empty empty 17 7 0 10 -262144 -1 -1
0 1;
#X obj 525 -231 r pontos;
#X floatatom 606 -47 5 0 0 0 - - -, f 5;
#X obj 151 105 r Foto-fallSpeed;
#X obj 535 324 s Foto-fallSpeed;
#X obj 359 -204 t b b b;
#X obj 362 -141 delay 200;
#X obj 374 -167 s tiraFoto;
#X floatatom 262 357 5 0 0 0 - - -, f 5;
#X obj 53 643 model game/cameraFoto.obj;
#N canvas 89 85 504 506 randrota 0;
#X obj 51 136 random 360;
#X obj 83 161 random 360;
#X obj 386 198 random 360;
#X obj 49 250 outlet;
#X obj 167 369 outlet;
#X obj 109 251 outlet;
#X obj 172 311 +;
#X obj 178 199 f;
#X obj 178 221 + 1;
#X obj 167 344 mod 359;
#X obj 285 187 r rotaSpeed;
#X obj 172 263 mod 359;
#X obj 50 78 t b b b b;
#X obj 263 236 +;
#X obj 273 121 random 1000;
#X obj 273 143 / 1000;
#X obj 273 165 * 4;
#X obj 285 211 t b f;
#X obj 51 56 r Foto-Fim;
#X obj 120 53 r Foto-reset;
#X obj 178 175 r Foto-newFrame;
#X connect 0 0 3 0;
#X connect 1 0 5 0;
#X connect 2 0 6 1;
#X connect 6 0 9 0;
#X connect 7 0 8 0;
#X connect 8 0 11 0;
#X connect 9 0 4 0;
#X connect 10 0 17 0;
#X connect 11 0 7 1;
#X connect 11 0 6 0;
#X connect 12 0 0 0;
#X connect 12 1 1 0;
#X connect 12 2 2 0;
#X connect 12 3 14 0;
#X connect 13 0 8 1;
#X connect 14 0 15 0;
#X connect 15 0 16 0;
#X connect 16 0 13 0;
#X connect 17 0 13 0;
#X connect 17 1 13 1;
#X connect 18 0 12 0;
#X connect 19 0 12 0;
#X connect 20 0 7 0;
#X restore 78 534 pd randrota;
#X obj 53 575 rotateXYZ 0 0 0;
#X obj 634 -226 r pontos;
#X obj 655 -142 f;
#X obj 635 -187 t f f b;
#X obj 635 -114 >;
#X obj 606 -71 spigot;
#X obj 604 -25 mod 50;
#X obj 597 6 sel 49;
#X connect 0 0 42 0;
#X connect 1 0 27 3;
#X connect 2 0 3 0;
#X connect 3 0 2 1;
#X connect 3 0 5 0;
#X connect 4 0 5 1;
#X connect 5 0 8 0;
#X connect 6 0 27 0;
#X connect 6 1 2 0;
#X connect 6 2 41 0;
#X connect 7 0 30 0;
#X connect 8 0 32 0;
#X connect 8 1 7 0;
#X connect 8 1 71 0;
#X connect 9 0 12 0;
#X connect 10 0 9 0;
#X connect 10 0 51 0;
#X connect 11 0 9 1;
#X connect 11 1 48 0;
#X connect 12 0 39 0;
#X connect 12 0 55 0;
#X connect 13 0 34 0;
#X connect 14 0 15 0;
#X connect 15 0 13 0;
#X connect 16 0 17 0;
#X connect 16 1 4 0;
#X connect 17 0 2 1;
#X connect 18 0 6 0;
#X connect 19 0 20 0;
#X connect 20 0 0 0;
#X connect 21 0 22 0;
#X connect 22 0 14 0;
#X connect 23 0 24 0;
#X connect 24 0 19 0;
#X connect 27 0 74 0;
#X connect 28 0 18 0;
#X connect 32 0 33 0;
#X connect 33 0 52 0;
#X connect 34 0 67 0;
#X connect 35 0 10 0;
#X connect 36 0 11 0;
#X connect 38 0 72 0;
#X connect 39 0 28 0;
#X connect 43 0 21 0;
#X connect 44 0 21 0;
#X connect 45 0 46 0;
#X connect 46 0 39 0;
#X connect 47 0 37 0;
#X connect 48 0 39 0;
#X connect 49 0 23 0;
#X connect 50 0 23 0;
#X connect 53 0 27 1;
#X connect 54 0 27 2;
#X connect 56 0 57 0;
#X connect 57 0 58 0;
#X connect 59 0 60 0;
#X connect 60 0 63 0;
#X connect 61 0 68 0;
#X connect 62 0 68 0;
#X connect 63 0 56 0;
#X connect 64 0 79 0;
#X connect 65 0 80 0;
#X connect 66 0 16 0;
#X connect 68 0 69 0;
#X connect 68 1 70 0;
#X connect 68 2 63 0;
#X connect 69 0 63 0;
#X connect 73 0 74 1;
#X connect 73 1 74 2;
#X connect 73 2 74 3;
#X connect 74 0 38 0;
#X connect 75 0 77 0;
#X connect 76 0 78 1;
#X connect 77 0 78 0;
#X connect 77 1 76 1;
#X connect 77 2 76 0;
#X connect 78 0 79 1;
#X connect 79 0 65 0;
#X connect 80 0 81 0;
#X connect 81 0 47 0;
#X restore 10 227 pd CUBO-FOTO;
#X connect 2 0 0 0;
#X connect 3 0 0 0;
#X connect 4 0 1 0;
#X connect 5 0 4 1;
#X connect 6 0 0 0;
#X connect 8 0 9 0;
#X connect 14 0 15 0;
#X connect 16 0 0 0;
#X connect 18 0 31 0;
#X connect 20 0 40 0;
#X connect 21 0 22 0;
#X connect 22 0 18 0;
#X connect 22 1 41 0;
#X connect 23 0 33 0;
#X connect 24 0 38 0;
#X connect 25 0 26 0;
#X connect 26 0 23 0;
#X connect 26 1 39 0;
#X connect 27 0 25 0;
#X connect 28 0 24 0;
#X connect 29 0 21 0;
#X connect 30 0 20 0;
#X connect 31 0 32 0;
#X connect 31 1 19 0;
#X connect 33 0 34 0;
#X connect 33 1 35 0;
#X connect 36 0 37 0;
#X connect 38 0 23 0;
#X connect 39 0 23 1;
#X connect 40 0 18 0;
#X connect 41 0 18 1;
#X connect 42 0 4 0;
#X connect 44 0 43 0;
#X connect 45 0 46 0;
#X connect 51 0 50 0;
#X connect 52 0 53 0;
